# xmcd
# 
# Track frame offsets:
#     150
#     16792
#     36710
#     52563
#     71318
#     82951
#     95704
#     110285
#     122415
#     142195
#     165996
#     180587
# 
# Disc length: 2635
# 
# Revision: 3
# Processed by: cddbd v1.5.2PL0 Copyright (c) Steve Scherf et al.
# Submitted via: fre:ac v1.0.31
# 
DISCID=8f0a490c
DTITLE=Dave Alvin - Lost Time
DYEAR=2015
DGENRE=Blues
TTITLE0=Mister Kicks
TTITLE1=World's In A  Bad Condition
TTITLE2=Cherry Red Blues
TTITLE3=Rattlesnakin' Daddy
TTITLE4=Hide And Seek
TTITLE5=Papa's On The House Top
TTITLE6=In New Orleans (Rising Sun Blues)
TTITLE7=Please Please Please
TTITLE8=Sit Down, Baby
TTITLE9=Wee Baby Blues
TTITLE10=Feeling Happy
TTITLE11=If You See My Savior
EXTD=
EXTT0=
EXTT1=
EXTT2=
EXTT3=
EXTT4=
EXTT5=
EXTT6=
EXTT7=
EXTT8=
EXTT9=
EXTT10=
EXTT11=
PLAYORDER=
